<svg width="48" height="54" viewBox="0 0 48 54" fill="none" xmlns="http://www.w3.org/2000/svg"><path d="M6.88237 52.75C3.49562 52.75.75 49.9189.75 46.4234V20.9958c0-1.9211.84813-3.741 2.3-4.9399L19.9176 2.13744C20.9953 1.2407 22.3507.75 23.75.75c1.3993 0 2.7547.4907 3.8324 1.38744L44.4471 16.0559c1.4548 1.1989 2.3029 3.0188 2.3029 4.9399v25.4276c0 3.4955-2.7456 6.3266-6.1324 6.3266H6.88237Z" fill="#F5F1DC" stroke="#780116" stroke-width="1.5" stroke-linecap="round" stroke-linejoin="round"/><path d="M16.5624 52.7501V36.8614c0-1.5323.6058-3.0019 1.6841-4.0854s2.5409-1.6923 4.0659-1.6923h2.875c1.525 0 2.9875.6088 4.0658 1.6923 1.0784 1.0835 1.6842 2.5531 1.6842 4.0854v15.8887" fill="#F5F1DC"/><path d="M16.5624 52.7501V36.8614c0-1.5323.6058-3.0019 1.6841-4.0854s2.5409-1.6923 4.0659-1.6923h2.875c1.525 0 2.9875.6088 4.0658 1.6923 1.0784 1.0835 1.6842 2.5531 1.6842 4.0854v15.8887" stroke="#780116" stroke-width="1.5" stroke-linecap="round" stroke-linejoin="round"/></svg>