<svg width="29" height="26" viewBox="0 0 29 26" fill="none" xmlns="http://www.w3.org/2000/svg"><path d="M29 11.7c0-.6896-.2778-1.3509-.7722-1.83848-.4944-.48759-1.165-.76152-1.8642-.76152h-8.3309l1.2655-5.941c.0263-.13.0395-.273.0395-.416 0-.533-.2241-1.027-.58-1.378L17.3605 0 8.68682 8.554c-.48773.481-.77773 1.131-.77773 1.846v13c0 .6896.27776 1.3509.77217 1.8385.49442.4876 1.16499.7615 1.86424.7615h11.8636c1.0941 0 2.03-.65 2.4254-1.586l3.981-9.165c.1186-.299.1845-.611.1845-.949v-2.6ZM0 26h5.27273V10.4H0V26Z" fill="#000"/></svg>