<svg width="14" height="20" viewBox="0 0 14 20" fill="none" xmlns="http://www.w3.org/2000/svg"><path d="M7 9.5c-.66304 0-1.29893-.26339-1.76777-.73223C4.76339 8.29893 4.5 7.66304 4.5 7c0-.66304.26339-1.29893.73223-1.76777C5.70107 4.76339 6.33696 4.5 7 4.5c.66304 0 1.29893.26339 1.76777.73223C9.23661 5.70107 9.5 6.33696 9.5 7c0 .3283-.06466.65339-.1903.95671a2.500236 2.500236 0 0 1-.54193.81106 2.500236 2.500236 0 0 1-.81106.54193A2.499985 2.499985 0 0 1 7 9.5ZM7 0C5.14348 0 3.36301.737498 2.05025 2.05025.737498 3.36301 0 5.14348 0 7c0 5.25 7 13 7 13s7-7.75 7-13c0-1.85652-.7375-3.63699-2.0503-4.94975C10.637.737498 8.85652 0 7 0Z" fill="#000"/></svg>