<svg width="48" height="51" viewBox="0 0 48 51" fill="none" xmlns="http://www.w3.org/2000/svg"><path d="M2.85482 4.22215c-.4655.91841-.69438 2.05623-1.15216 4.32675L.164734 16.1768c-.217961 1.0401-.21965 2.1133-.004961 3.154.214688 1.0407.641235 2.027 1.253527 2.8985.6123.8715 1.39745 1.6099 2.30741 2.1699.90995.5601 1.92556.93 2.98464 1.0871 1.05908.1572 2.13936.0983 3.17469-.1731 1.03536-.2713 2.00396-.7495 2.84656-1.4051s1.5414-1.4749 2.0537-2.4077c.5123-.9328.8273-1.9596.9257-3.0173l.18-1.7603c-.0974 1.1195.0416 2.2469.4082 3.3101.3667 1.0633.9529 2.0389 1.7212 2.8647.7682.8258 1.7017 1.4835 2.7408 1.9311 1.039.4476 2.1608.6753 3.2935.6686 1.1328-.0068 2.2517-.2479 3.2852-.7079 1.0336-.46 1.959-1.1289 2.7172-1.9637.7582-.8349 1.3325-1.8175 1.6862-2.8851.3537-1.0675.479-2.1965.368-3.3148l.1877 1.8573c.0984 1.0577.4134 2.0845.9257 3.0173.5123.9328 1.2111 1.7521 2.0537 2.4077.8426.6556 1.8112 1.1338 2.8466 1.4051 1.0353.2714 2.1156.3303 3.1747.1731 1.059-.1571 2.0746-.527 2.9846-1.0871.9099-.56 1.6951-1.2984 2.3074-2.1699.6123-.8715 1.0388-1.8578 1.2535-2.8985.2147-1.0407.213-2.1139-.0049-3.154l-1.538-7.6279c-.4577-2.27052-.6866-3.40579-1.1521-4.32675-.485-.95913-1.168-1.80637-2.0045-2.48673-.8365-.68035-1.8078-1.178617-2.851-1.462447C39.2867 0 38.1191 0 35.7839 0H12.2161C9.88092 0 8.71333 0 7.71034.272973c-1.0432.28383-2.01457.782097-2.85107 1.462447-.8365.68036-1.51943 1.5276-2.00445 2.48673ZM40.1225 29.3382c2.0094.005 3.986-.5056 5.7376-1.4822v2.7578c0 9.6204 0 14.4318-3.0141 17.4192-2.4252 2.4083-6.0385 2.8752-12.4165 2.967v-8.9061c0-2.3853 0-3.5767-.517-4.4645-.3385-.5817-.8255-1.0647-1.4119-1.4005-.895-.5128-2.096-.5128-4.5006-.5128-2.4046 0-3.6056 0-4.5006.5128-.5864.3358-1.0734.8188-1.4119 1.4005-.517.8878-.517 2.0792-.517 4.4645V51c-6.378-.0918-9.99132-.5613-12.41651-2.967-3.01413-2.9874-3.01413-7.7988-3.01413-17.4192V27.856c1.75244.9771 3.72994 1.4877 5.74022 1.4822 2.97202.0018 5.83342-1.1182 8.00342-3.1328 2.211 2.0213 5.1097 3.1402 8.1165 3.1328 3.0068.0074 5.9055-1.1115 8.1165-3.1328 2.17 2.0146 5.0339 3.1346 8.006 3.1328Z" fill="#F5F1DC"/></svg>