<svg width="18" height="18" viewBox="0 0 18 18" fill="none" xmlns="http://www.w3.org/2000/svg"><path d="m16.6 18-6.3-6.3c-.5.4-1.075.7167-1.725.95-.65.2333-1.34167.35-2.075.35-1.81667 0-3.354-.6293-4.612-1.888C.63 9.85333.000667 8.316 0 6.5c-.000666-1.816.628667-3.35333 1.888-4.612C3.14733.629333 4.68467 0 6.5 0c1.81533 0 3.353.629333 4.613 1.888C12.373 3.14667 13.002 4.684 13 6.5c0 .73333-.1167 1.425-.35 2.075-.2333.65-.55 1.225-.95 1.725l6.3 6.3-1.4 1.4ZM6.5 11c1.25 0 2.31267-.4373 3.188-1.312.8753-.87467 1.3127-1.93733 1.312-3.188-.0007-1.25067-.438-2.313-1.312-3.187C8.814 2.439 7.75133 2.00133 6.5 2c-1.25133-.00133-2.31367.43633-3.187 1.313C2.43967 4.18967 2.002 5.252 2 6.5c-.002 1.248.43567 2.31067 1.313 3.188.87733.8773 1.93967 1.3147 3.187 1.312Z" fill="#780116"/></svg>