<svg width="21" height="20" viewBox="0 0 21 20" fill="none" xmlns="http://www.w3.org/2000/svg"><path fill-rule="evenodd" clip-rule="evenodd" d="M8.85936 0C6.85778 0 4.93818.865431 3.52285 2.40591 2.10752 3.94639 1.3124 6.03572 1.3124 8.21429v.74c-.399025.25077-.730373.61145-.960746 1.04581C.121281 10.4344 0 10.9271 0 11.4286c0 .5015.121281.9942.351654 1.4285.230373.4343.561721.795.960746 1.0458v2.1685c0 1.042.38028 2.0412 1.05717 2.7779C3.04647 19.5861 3.96454 20 4.92181 20H16.0782c.9573 0 1.8753-.4139 2.5522-1.1507.6769-.7367 1.0572-1.7359 1.0572-2.7779v-2.1685c.399-.2508.7304-.6115.9607-1.0458.2304-.4343.3517-.927.3517-1.4285 0-.5015-.1213-.9942-.3517-1.4285-.2303-.43436-.5617-.79504-.9607-1.04581v-.74c0-2.17857-.7951-4.2679-2.2105-5.80838C16.0618.865431 14.1422 0 12.1406 0H8.85936Zm9.51574 10.7143H2.62491c-.17405 0-.34097.0752-.46404.2092-.12307.1339-.19221.3156-.19221.5051 0 .1894.06914.3711.19221.505.12307.134.28999.2093.46404.2093H18.3751c.174 0 .341-.0753.464-.2093.1231-.1339.1922-.3156.1922-.505 0-.1895-.0691-.3712-.1922-.5051-.123-.134-.29-.2092-.464-.2092Zm-.6563-2.14287v-.35714c0-1.61025-.5877-3.15454-1.6338-4.29315-1.0461-1.13862-2.4649-1.77828-3.9444-1.77828H8.85936c-1.47943 0-2.89826.63966-3.94438 1.77828-1.04611 1.13861-1.63381 2.6829-1.63381 4.29315v.35714H17.7188Zm-3.2813 5.71427h3.2813v1.7857c0 .9857-.735 1.7857-1.6406 1.7857H4.92181c-.90563 0-1.64064-.8-1.64064-1.7857v-1.7857h8.53133l1.3125 1.4286 1.3125-1.4286Z" fill="#000"/></svg>