<svg width="56" height="56" viewBox="0 0 56 56" fill="none" xmlns="http://www.w3.org/2000/svg"><path d="M44.8 44.8c-3.108 0-5.6 2.492-5.6 5.6 0 1.4852.59 2.9096 1.6402 3.9598C41.8904 55.41 43.3148 56 44.8 56c1.4852 0 2.9096-.59 3.9598-1.6402C49.81 53.3096 50.4 51.8852 50.4 50.4c0-1.4852-.59-2.9096-1.6402-3.9598C47.7096 45.39 46.2852 44.8 44.8 44.8ZM0 0v5.6h5.6l10.08 21.252-3.808 6.86c-.42.784-.672 1.708-.672 2.688 0 1.4852.59 2.9096 1.6402 3.9598C13.8904 41.41 15.3148 42 16.8 42h33.6v-5.6H17.976c-.1857 0-.3637-.0737-.495-.205-.1313-.1313-.205-.3093-.205-.495 0-.14.028-.252.084-.336l2.52-4.564h20.86c2.1 0 3.948-1.176 4.9-2.884L55.664 9.8c.196-.448.336-.924.336-1.4 0-.74261-.295-1.4548-.8201-1.9799C54.6548 5.895 53.9426 5.6 53.2 5.6H11.788L9.156 0M16.8 44.8c-3.108 0-5.6 2.492-5.6 5.6 0 1.4852.59 2.9096 1.6402 3.9598C13.8904 55.41 15.3148 56 16.8 56c1.4852 0 2.9096-.59 3.9598-1.6402C21.81 53.3096 22.4 51.8852 22.4 50.4c0-1.4852-.59-2.9096-1.6402-3.9598C19.7096 45.39 18.2852 44.8 16.8 44.8Z" fill="#F5F1DC"/></svg>